<svg width="1379" height="1375" xmlns="http://www.w3.org/2000/svg" xmlns:xlink="http://www.w3.org/1999/xlink"
     xml:space="preserve" overflow="hidden"><g><path d="M542.5 688C542.5 506.574 689.351 359.5 870.5 359.5 1051.65 359.5 1198.5 506.574 1198.5 688 1198.5 869.425 1051.65 1016.5 870.5 1016.5 689.351 1016.5 542.5 869.425 542.5 688Z" stroke="#4C1D95" stroke-width="6.875" stroke-miterlimit="8" fill="none" fill-rule="evenodd"/><path
        d="M470.5 688C470.5 466.81 649.586 287.5 870.5 287.5 1091.41 287.5 1270.5 466.81 1270.5 688 1270.5 909.19 1091.41 1088.5 870.5 1088.5 649.586 1088.5 470.5 909.19 470.5 688Z"
        stroke="#4C1D95" stroke-width="6.875" stroke-miterlimit="8" stroke-dasharray="55 20.625 6.875 20.625"
        fill="none" fill-rule="evenodd"/><path
        d="M136.657 465.5 345.74 465.5C345.74 483.432 360.275 497.968 378.204 497.968 396.133 497.968 410.668 483.432 410.668 465.5L1239.34 465.5C1280.3 465.5 1313.5 498.706 1313.5 539.668L1313.5 656.694C1295.57 656.694 1281.04 671.231 1281.04 689.163 1281.04 707.095 1295.57 721.631 1313.5 721.631L1313.5 836.332C1313.5 877.294 1280.3 910.5 1239.34 910.5L410.668 910.5C410.668 892.568 396.133 878.032 378.204 878.032 360.275 878.032 345.74 892.568 345.74 910.5L136.657 910.5C95.7012 910.5 62.5001 877.294 62.5001 836.332L62.5001 720.469 75.1365 717.917C86.7882 712.988 94.9638 701.449 94.9638 688 94.9638 674.551 86.7882 663.012 75.1365 658.083L62.5001 655.531 62.5001 539.668C62.5001 498.706 95.7012 465.5 136.657 465.5Z"
        stroke="#4C1D95" stroke-width="9.16667" stroke-miterlimit="8" fill="#8B5CF6" fill-rule="evenodd"/><path
        d="M378.5 498.5 378.5 878.274" stroke="#4C1D95" stroke-width="9.16667" stroke-miterlimit="8"
        stroke-dasharray="73.3333 27.5" fill="none" fill-rule="evenodd"/><text fill="#FFFFFF"
                                                                               font-family="Gotham,Gotham_MSFontService,sans-serif"
                                                                               font-weight="700" font-size="367"
                                                                               transform="matrix(1 0 0 1 1006.46 817)">t</text><path
        d="M521.5 569.5 669.814 569.5" stroke="#FFFFFF" stroke-width="9.16667" stroke-miterlimit="8" fill="none"
        fill-rule="evenodd"/><path d="M650.5 648.5 732.542 648.501" stroke="#FFFFFF" stroke-width="9.16667"
                                   stroke-miterlimit="8" fill="none" fill-rule="evenodd"/><path
        d="M775.5 648.5 964.563 648.501" stroke="#FFFFFF" stroke-width="9.16667" stroke-miterlimit="8" fill="none"
        fill-rule="evenodd"/><path d="M712.5 569.5 965.408 569.5" stroke="#FFFFFF" stroke-width="9.16667"
                                   stroke-miterlimit="8" fill="none" fill-rule="evenodd"/><path
        d="M682 569C682 564.582 685.806 561 690.5 561 695.194 561 699 564.582 699 569 699 573.418 695.194 577 690.5 577 685.806 577 682 573.418 682 569Z"
        fill="#FFFFFF" fill-rule="evenodd"/><path
        d="M745 648.5C745 643.806 748.582 640 753 640 757.418 640 761 643.806 761 648.5 761 653.194 757.418 657 753 657 748.582 657 745 653.194 745 648.5Z"
        fill="#FFFFFF" fill-rule="evenodd"/></g></svg>