<?xml version="1.0" standalone="no"?>
<!DOCTYPE svg PUBLIC "-//W3C//DTD SVG 20010904//EN"
 "http://www.w3.org/TR/2001/REC-SVG-20010904/DTD/svg10.dtd">
<svg version="1.0" xmlns="http://www.w3.org/2000/svg"
 width="300.000000pt" height="293.000000pt" viewBox="0 0 300.000000 293.000000"
 preserveAspectRatio="xMidYMid meet">
<metadata>
Created by potrace 1.10, written by Peter Selinger 2001-2011
</metadata>
<g transform="translate(0.000000,293.000000) scale(0.100000,-0.100000)"
fill="#000000" stroke="none">
<path d="M1168 2534 c-112 -17 -248 -63 -357 -120 -116 -60 -127 -69 -111 -89
10 -12 10 -15 -3 -15 -9 0 -19 5 -22 10 -12 20 -168 -124 -248 -228 -71 -92
-167 -271 -167 -311 0 -9 -4 -21 -9 -27 -21 -24 -61 -233 -61 -324 0 -27 6
-42 22 -54 l23 -17 -22 6 c-21 6 -23 3 -23 -27 0 -56 27 -210 49 -283 31 -104
100 -243 124 -249 15 -4 18 -8 10 -18 -23 -28 154 -228 292 -331 89 -66 149
-98 284 -151 66 -26 97 -34 104 -27 6 6 22 11 35 11 20 0 22 -3 13 -14 -15
-17 0 -21 140 -36 336 -36 700 101 935 353 65 69 154 184 154 198 0 5 -7 9
-15 9 -8 0 -15 7 -15 15 0 11 7 14 24 9 22 -5 28 0 50 44 14 28 35 74 46 103
23 61 70 244 70 274 0 28 -16 49 -30 40 -8 -5 -7 -12 5 -25 14 -15 14 -19 0
-30 -8 -7 -21 -10 -29 -7 -10 4 -15 -7 -20 -42 -3 -27 -20 -88 -36 -136 -35
-104 -34 -95 -15 -95 17 0 20 -26 5 -35 -6 -4 -17 -2 -24 4 -9 8 -19 -3 -40
-46 -98 -201 -316 -400 -534 -489 -43 -17 -57 -28 -57 -43 0 -12 -4 -20 -10
-18 -5 1 -9 8 -9 15 2 15 3 15 -86 -9 -212 -56 -469 -39 -677 45 -361 147
-619 484 -677 884 -4 24 -16 52 -29 65 l-22 22 23 3 c20 3 22 8 22 71 0 203
85 450 215 623 47 62 166 192 183 200 4 2 45 28 92 59 47 31 99 63 115 72 93
48 235 90 349 103 l60 7 -24 19 c-12 10 -21 20 -18 23 9 9 48 -8 48 -21 0 -17
16 -19 25 -3 4 6 14 7 24 4 49 -21 86 -24 103 -8 15 14 24 14 58 4 23 -7 50
-9 60 -6 12 4 20 2 20 -4 0 -6 -5 -11 -11 -11 -5 0 -7 -5 -3 -11 4 -7 22 -9
45 -6 25 3 42 1 47 -7 4 -7 43 -25 87 -40 44 -16 94 -37 111 -47 17 -11 39
-19 48 -19 9 0 16 -4 16 -8 0 -5 30 -28 66 -52 78 -52 214 -186 269 -266 63
-92 85 -132 125 -234 54 -135 74 -241 75 -390 l0 -125 30 30 c29 29 30 34 30
114 -1 57 -5 86 -13 89 -14 4 -16 29 -2 34 14 4 -11 128 -46 228 -21 63 -34
85 -56 98 -24 14 -26 19 -14 27 13 10 11 17 -8 51 -13 21 -29 38 -36 36 -17
-4 -31 19 -20 33 14 16 -19 60 -33 46 -6 -6 -17 -11 -25 -11 -12 0 -12 4 1 24
15 23 14 26 -18 64 -21 24 -47 42 -67 47 -22 5 -27 9 -15 12 29 7 19 23 -14
23 -26 0 -29 3 -20 14 10 11 0 23 -50 63 -34 26 -66 47 -70 46 -5 -2 -19 8
-33 21 -54 55 -236 130 -386 160 -126 25 -190 29 -190 11 0 -8 -4 -15 -10 -15
-5 0 -10 7 -10 15 0 19 -68 19 -192 -1z m596 -88 c-4 -10 2 -12 23 -10 l28 4
-28 -11 c-15 -6 -34 -8 -42 -5 -18 6 -9 36 11 36 7 0 11 -6 8 -14z"/>
<path d="M1370 2407 c0 -21 12 -28 27 -16 19 16 16 29 -7 29 -11 0 -20 -6 -20
-13z"/>
<path d="M1429 2400 c-1 -5 -2 -16 -3 -22 -1 -7 -4 -15 -7 -18 -4 -3 -8 -25
-10 -50 -4 -40 -2 -45 16 -45 21 0 22 3 24 73 1 35 4 42 21 42 11 0 20 7 20
15 0 17 -59 22 -61 5z"/>
<path d="M1567 2393 c-6 -12 -21 -87 -18 -97 1 -4 -3 -14 -10 -22 -13 -15 -4
-34 17 -34 17 0 19 16 3 26 -8 5 -6 10 5 16 9 5 16 18 16 29 0 10 5 28 12 38
6 10 8 26 5 35 -7 17 -23 21 -30 9z"/>
<path d="M950 2327 c-25 -12 -47 -22 -48 -24 -2 -1 0 -9 6 -19 6 -11 11 -13
16 -5 12 18 26 13 36 -14 6 -15 17 -25 30 -25 24 0 25 9 5 36 -19 26 -19 31 6
37 20 5 23 28 3 33 -5 2 -29 -7 -54 -19z"/>
<path d="M1700 2343 c-54 -20 -67 -82 -25 -122 27 -25 69 -31 88 -12 16 16
-10 32 -39 25 -27 -7 -39 10 -39 54 -1 27 3 32 22 32 13 0 33 -11 45 -25 24
-27 48 -33 48 -11 0 19 -50 66 -69 65 -9 0 -23 -3 -31 -6z"/>
<path d="M1190 2275 c0 -21 30 -31 40 -14 11 17 3 29 -21 29 -10 0 -19 -7 -19
-15z"/>
<path d="M805 2254 c-11 -8 -26 -19 -34 -23 -11 -7 -6 -21 24 -70 21 -33 40
-61 43 -61 10 0 72 42 72 49 0 17 -14 19 -35 5 -20 -13 -24 -13 -35 1 -11 14
-10 17 8 22 12 3 22 11 22 19 0 20 -16 25 -30 9 -16 -19 -26 -19 -34 0 -4 11
3 19 20 25 14 6 24 15 22 22 -6 18 -21 19 -43 2z"/>
<path d="M1861 2226 c-23 -32 -27 -46 -18 -55 8 -8 6 -11 -11 -11 -23 0 -29
-14 -11 -26 6 -3 22 6 35 22 l23 29 1 -46 c0 -29 6 -51 15 -59 13 -11 15 -6
15 38 l0 51 48 14 47 14 -26 12 c-22 11 -31 10 -57 -3 -36 -19 -50 -6 -22 19
24 22 25 31 5 39 -9 3 -25 -10 -44 -38z"/>
<path d="M1270 2215 c0 -18 -1 -18 -34 -5 -52 19 -316 -77 -316 -115 0 -8 -6
-12 -15 -9 -18 7 -63 -24 -142 -99 -37 -36 -60 -64 -56 -73 3 -8 -1 -14 -11
-14 -14 0 -64 -68 -101 -140 -19 -37 -19 -36 18 -45 18 -5 27 -3 27 5 0 24 74
133 132 195 39 42 56 68 52 79 -5 12 0 16 21 16 14 0 45 13 68 29 108 73 238
119 367 128 47 3 95 12 107 20 18 12 22 12 30 0 4 -8 39 -20 77 -26 76 -13
178 -49 244 -86 25 -14 57 -25 72 -25 27 0 49 -25 29 -32 -20 -7 55 -51 85
-50 29 1 30 0 12 -14 -19 -14 -19 -14 4 -39 21 -22 25 -24 30 -10 5 15 9 14
30 -4 l25 -20 -28 -1 -29 0 26 -32 c14 -18 31 -40 38 -48 7 -9 18 -29 25 -45
6 -17 24 -59 38 -95 15 -35 30 -82 33 -104 5 -36 6 -37 19 -21 14 20 16 16 13
-27 -2 -31 5 -35 25 -14 12 11 11 25 -5 88 -52 203 -182 388 -353 503 -28 19
-62 35 -74 35 -13 0 -23 5 -23 11 0 38 -339 123 -360 89 -6 -10 -15 -10 -40
-1 -44 15 -60 14 -60 -4z"/>
<path d="M984 2205 c3 -9 6 -18 6 -20 0 -2 9 -1 20 2 27 7 20 27 -10 31 -18 3
-21 0 -16 -13z"/>
<path d="M670 2155 c-8 -9 -10 -28 -6 -50 7 -38 -3 -45 -28 -20 -15 16 -36 20
-36 8 0 -5 22 -32 48 -61 36 -39 51 -50 62 -43 12 8 11 14 -10 36 l-25 27 48
-7 c44 -7 49 -6 45 11 -2 13 -14 21 -38 24 -34 5 -35 6 -34 48 1 44 -6 51 -26
27z"/>
<path d="M1295 2131 c-3 -12 -13 -21 -21 -21 -19 0 -18 -16 1 -24 8 -3 15 -15
15 -27 0 -18 3 -19 15 -9 8 6 23 9 34 5 17 -5 20 -3 14 12 -11 31 -14 33 -33
23 -17 -9 -19 -8 -13 7 4 10 10 21 15 24 5 3 2 11 -6 18 -12 10 -16 8 -21 -8z"/>
<path d="M2002 2087 l-52 -53 34 -33 c36 -35 63 -26 30 10 -22 24 -5 50 20 30
11 -9 16 -9 21 0 4 6 1 15 -6 20 -11 7 -12 10 -1 21 11 11 17 9 32 -9 14 -18
20 -20 29 -10 8 10 3 21 -22 45 l-33 32 -52 -53z"/>
<path d="M1490 2120 c0 -5 -11 -10 -25 -10 -14 0 -25 -4 -25 -10 0 -5 5 -10
11 -10 7 0 9 -10 5 -25 -6 -24 7 -35 19 -15 8 13 33 2 38 -18 4 -14 2 60 -2
91 -2 11 -21 9 -21 -3z"/>
<path d="M1080 2080 c0 -11 -7 -20 -15 -20 -8 0 -15 -4 -15 -9 0 -5 7 -11 15
-15 8 -3 15 -12 15 -21 0 -8 7 -15 15 -15 8 0 15 7 15 15 0 8 -7 15 -15 15 -8
0 -15 7 -15 15 0 20 16 19 32 -3 24 -34 33 -32 33 7 0 30 -3 37 -16 34 -9 -3
-20 0 -23 6 -11 18 -26 13 -26 -9z"/>
<path d="M1675 2050 c-3 -6 -18 -7 -32 -4 -23 6 -24 5 -14 -15 18 -32 71 -25
71 10 0 20 -15 26 -25 9z"/>
<path d="M2151 2006 c-8 -10 -9 -16 -1 -21 18 -11 11 -23 -35 -52 -49 -30 -49
-31 -36 -52 7 -11 19 -7 60 23 42 31 52 35 57 22 7 -18 34 -22 34 -5 0 8 -32
57 -60 92 -4 4 -12 1 -19 -7z"/>
<path d="M947 1999 c-9 -6 -26 -8 -36 -4 -16 5 -18 2 -14 -15 3 -11 0 -27 -7
-35 -11 -13 -8 -15 14 -15 16 0 26 -5 26 -15 0 -22 17 -18 23 5 3 11 13 20 23
20 16 0 16 1 0 19 -9 10 -14 25 -10 35 7 19 5 19 -19 5z"/>
<path d="M1693 1996 c-24 -11 -30 -31 -13 -41 6 -3 10 0 10 8 0 8 10 22 23 30
25 18 13 20 -20 3z"/>
<path d="M505 1976 c-30 -30 -32 -64 -5 -98 25 -33 49 -39 88 -22 32 13 47 43
40 83 -5 34 -23 30 -26 -6 -4 -43 -25 -59 -57 -45 -35 16 -34 57 2 74 33 16
36 32 6 36 -14 2 -32 -6 -48 -22z"/>
<path d="M1810 1931 c0 -12 -7 -24 -15 -27 -22 -9 -18 -24 5 -24 11 0 20 -7
20 -15 0 -19 16 -20 23 -1 4 9 14 12 26 9 21 -5 29 11 11 22 -5 3 -10 15 -10
27 0 14 -5 18 -16 14 -9 -4 -23 -1 -30 5 -11 9 -14 7 -14 -10z"/>
<path d="M795 1860 c-3 -5 -3 -14 0 -20 3 -5 -3 -10 -13 -10 -11 0 -23 -7 -26
-16 -10 -26 -7 -32 13 -27 10 3 22 0 25 -6 11 -17 29 -13 22 4 -4 10 2 19 17
24 20 8 20 10 5 16 -10 4 -18 16 -18 26 0 20 -15 26 -25 9z"/>
<path d="M408 1813 c-3 -14 12 -25 62 -49 68 -33 80 -34 80 -6 0 11 -20 25
-58 40 -31 13 -62 25 -69 28 -6 3 -13 -3 -15 -13z"/>
<path d="M1940 1780 c0 -11 -7 -20 -15 -20 -8 0 -15 -4 -15 -10 0 -5 7 -10 15
-10 8 0 15 -9 15 -20 0 -21 15 -27 25 -10 3 6 14 10 24 10 14 0 18 7 17 30 -1
21 -6 30 -18 30 -9 0 -20 5 -23 10 -10 17 -25 11 -25 -10z"/>
<path d="M360 1664 c-7 -30 -9 -58 -7 -61 9 -9 27 7 27 24 0 11 6 14 23 9 12
-4 41 -10 65 -13 34 -5 42 -3 42 11 0 11 -9 16 -29 16 -17 0 -33 5 -36 10 -3
6 -15 10 -27 10 -16 0 -19 5 -16 25 4 19 1 25 -13 25 -13 0 -20 -13 -29 -56z"/>
<path d="M704 1695 c-4 -10 -13 -13 -25 -10 -20 7 -27 -9 -9 -20 6 -3 7 -18 4
-32 -6 -23 -5 -24 14 -14 14 7 23 8 27 1 10 -17 25 -11 25 9 0 11 6 22 13 25
8 3 7 8 -5 16 -10 6 -18 18 -18 25 0 20 -19 19 -26 0z"/>
<path d="M536 1613 c-3 -10 -8 -35 -12 -55 -6 -36 -5 -38 20 -38 21 0 27 6 36
41 6 22 14 47 17 55 4 10 -3 14 -25 14 -21 0 -32 -6 -36 -17z"/>
<path d="M2024 1605 c-4 -8 -15 -15 -27 -15 -18 0 -19 -2 -5 -17 9 -10 13 -24
11 -32 -4 -9 0 -11 15 -7 11 4 23 2 27 -4 11 -18 27 -11 20 10 -4 13 -1 22 9
26 23 9 20 24 -4 24 -11 0 -20 7 -20 15 0 8 -5 15 -10 15 -6 0 -13 -7 -16 -15z"/>
<path d="M2277 1573 c-9 -25 -15 -48 -13 -50 9 -9 86 43 86 59 0 4 -9 8 -20 8
-11 0 -20 7 -20 15 0 30 -16 14 -33 -32z"/>
<path d="M650 1525 c0 -8 -9 -15 -20 -15 -21 0 -27 -15 -10 -25 6 -3 10 -18
10 -32 0 -21 2 -23 15 -13 8 6 23 9 36 5 18 -6 20 -4 15 13 -4 11 -2 23 4 27
15 9 12 25 -5 25 -9 0 -18 7 -21 15 -4 8 -10 15 -15 15 -5 0 -9 -7 -9 -15z"/>
<path d="M515 1500 c-13 -21 -6 -225 10 -305 14 -69 49 -153 112 -270 17 -33
106 -140 138 -167 12 -10 29 -15 43 -11 23 5 29 -6 11 -24 -14 -14 106 -91
209 -134 99 -41 250 -69 262 -49 7 12 11 12 25 0 13 -11 23 -11 51 -1 27 10
38 10 49 1 11 -9 32 -8 92 3 163 31 300 105 435 235 48 46 88 89 88 93 0 5
-14 9 -32 9 -25 0 -42 -10 -78 -47 -170 -177 -392 -265 -628 -250 -182 12
-401 111 -499 226 -19 22 -23 23 -23 8 0 -10 -4 -15 -10 -12 -5 3 -10 15 -10
26 0 12 -15 39 -34 62 -52 64 -112 183 -138 272 -18 64 -23 105 -23 207 0 71
-3 128 -7 128 -3 0 -13 3 -21 6 -8 3 -18 0 -22 -6z"/>
<path d="M2148 1377 c3 -40 9 -75 14 -78 6 -4 5 -10 -4 -15 -15 -9 -41 -108
-41 -156 0 -16 -3 -28 -8 -28 -4 0 -19 -25 -33 -55 -13 -30 -38 -74 -55 -99
-37 -53 -38 -58 -8 -54 15 2 21 9 19 21 -2 14 2 18 20 15 20 -3 29 8 65 82 52
103 81 225 84 344 l2 89 -29 3 -30 3 4 -72z"/>
<path d="M2056 1394 c-4 -11 -13 -14 -27 -11 -15 4 -19 2 -15 -10 3 -8 6 -21
6 -29 0 -8 5 -14 12 -14 6 0 20 -7 30 -17 17 -15 18 -15 18 4 0 12 7 23 15 27
8 3 15 10 15 16 0 5 -7 10 -15 10 -8 0 -15 6 -15 14 0 22 -17 28 -24 10z"/>
<path d="M650 1304 c0 -14 -8 -24 -22 -28 -22 -6 -22 -7 -5 -20 9 -7 17 -21
17 -30 0 -18 15 -22 25 -6 4 6 16 8 27 4 17 -5 19 -3 13 15 -4 13 -1 28 5 36
10 12 8 15 -10 15 -13 0 -29 8 -36 18 -12 16 -13 16 -14 -4z"/>
<path d="M386 1245 c-3 -8 -15 -15 -27 -15 -19 0 -20 -2 -8 -17 8 -9 13 -25
11 -35 -3 -17 0 -18 15 -10 13 8 22 7 35 -5 17 -15 18 -14 18 8 0 14 6 31 13
38 10 11 8 13 -10 8 -19 -4 -23 -1 -23 19 0 27 -15 32 -24 9z"/>
<path d="M2026 1172 c-5 -9 -17 -11 -33 -7 -21 5 -24 3 -18 -14 3 -11 1 -22
-5 -26 -17 -10 -11 -25 10 -25 11 0 20 -7 20 -15 0 -8 5 -15 10 -15 6 0 10 7
10 15 0 8 9 15 20 15 21 0 26 10 11 26 -5 5 -11 20 -13 34 -2 18 -5 21 -12 12z"/>
<path d="M2350 1166 c0 -24 -15 -27 -66 -11 -62 19 -64 19 -64 -4 0 -16 12
-22 55 -32 47 -10 55 -15 53 -33 -2 -12 3 -22 13 -24 12 -2 18 7 23 35 3 21 9
48 12 61 5 16 2 22 -10 22 -9 0 -16 -6 -16 -14z"/>
<path d="M687 1114 c4 -10 -1 -22 -12 -30 -17 -13 -16 -14 9 -23 14 -6 26 -15
26 -21 0 -5 5 -10 10 -10 6 0 10 7 10 15 0 8 9 15 20 15 11 0 20 5 20 10 0 6
-5 10 -11 10 -7 0 -9 10 -5 25 7 26 -3 32 -21 14 -8 -8 -13 -8 -17 0 -11 18
-36 13 -29 -5z"/>
<path d="M2180 1022 c0 -22 127 -69 143 -53 15 15 3 24 -66 49 -71 27 -77 27
-77 4z"/>
<path d="M811 986 c-7 -8 -21 -12 -33 -9 -18 5 -19 4 -8 -16 9 -17 9 -26 -1
-37 -9 -11 -7 -14 14 -14 14 0 29 -4 32 -10 11 -17 27 -11 21 8 -5 13 1 22 16
29 l23 10 -23 7 c-14 5 -21 13 -18 22 7 19 -9 27 -23 10z"/>
<path d="M1890 987 c0 -9 -8 -20 -17 -26 -17 -9 -17 -11 1 -24 11 -8 16 -19
12 -25 -4 -7 -1 -12 8 -12 9 0 16 5 16 10 0 6 11 8 26 4 24 -6 25 -5 14 15 -9
17 -9 26 1 37 9 11 7 14 -13 14 -13 0 -29 5 -36 12 -9 9 -12 8 -12 -5z"/>
<path d="M2110 881 c-9 -22 -9 -34 0 -51 14 -27 27 -16 32 25 2 22 9 31 26 33
49 7 73 -51 28 -67 -32 -13 -42 -41 -15 -41 51 0 88 56 69 105 -9 23 -15 25
-69 25 -55 0 -59 -2 -71 -29z"/>
<path d="M914 877 c-4 -12 -13 -17 -26 -14 -15 4 -18 2 -12 -11 3 -9 6 -27 5
-40 -1 -19 2 -21 17 -13 12 7 22 5 34 -6 17 -15 18 -14 18 8 0 14 5 30 11 36
8 8 8 13 0 17 -6 4 -11 4 -11 -1 -1 -4 -7 3 -15 17 -12 23 -14 23 -21 7z"/>
<path d="M1766 864 c-4 -9 -13 -14 -21 -10 -17 6 -21 -9 -5 -19 6 -3 7 -18 4
-32 -6 -23 -5 -24 14 -14 14 7 23 8 27 1 10 -17 25 -11 25 9 0 11 5 23 10 26
17 10 11 25 -10 25 -11 0 -20 7 -20 15 0 20 -16 19 -24 -1z"/>
<path d="M601 814 c-50 -39 -56 -41 -65 -17 -5 12 -10 13 -18 5 -15 -15 12
-56 52 -75 31 -16 39 -10 18 11 -10 10 -7 16 10 28 60 42 75 59 60 71 -11 9
-23 5 -57 -23z"/>
<path d="M1040 795 c0 -8 -9 -15 -20 -15 -21 0 -27 -15 -10 -25 6 -3 10 -18
10 -32 0 -21 2 -23 15 -13 8 6 23 9 35 5 21 -7 29 10 8 18 -9 4 -5 12 12 26
l25 21 -23 0 c-12 0 -25 7 -28 15 -4 8 -10 15 -15 15 -5 0 -9 -7 -9 -15z"/>
<path d="M2024 778 c-4 -6 2 -19 14 -29 32 -25 27 -31 -21 -24 -32 5 -46 3
-55 -8 -11 -13 -5 -16 38 -22 l50 -7 0 -44 c0 -24 4 -44 10 -44 17 0 28 34 23
70 l-6 35 26 -24 c24 -22 27 -22 33 -7 5 13 -7 32 -42 67 -51 52 -59 56 -70
37z"/>
<path d="M714 739 c-3 -6 5 -23 19 -37 13 -15 27 -34 29 -42 4 -12 7 -10 16 7
10 18 8 26 -15 52 -30 33 -38 37 -49 20z"/>
<path d="M1559 732 c7 -14 8 -23 1 -27 -17 -10 -11 -28 6 -21 10 4 26 -1 37
-11 20 -18 20 -17 14 14 -4 21 -2 33 6 36 19 7 6 15 -37 22 -36 7 -38 7 -27
-13z"/>
<path d="M1180 725 c0 -28 63 -39 68 -12 3 15 0 18 -16 13 -11 -4 -23 -2 -27
4 -9 15 -25 12 -25 -5z"/>
<path d="M1395 700 c4 -13 1 -22 -9 -26 -23 -9 -20 -24 4 -24 11 0 20 -7 20
-15 0 -8 5 -15 10 -15 6 0 13 7 16 15 4 8 15 15 25 15 23 0 25 16 3 24 -10 4
-13 13 -9 26 7 22 -4 27 -22 9 -8 -8 -13 -8 -17 0 -12 19 -28 12 -21 -9z"/>
<path d="M675 689 c-4 -6 -1 -15 6 -20 21 -13 31 -11 27 8 -4 20 -24 28 -33
12z"/>
<path d="M632 658 c-9 -9 -3 -20 24 -45 l37 -33 23 25 c31 33 30 37 -5 33 -17
-1 -37 4 -48 15 -15 13 -22 14 -31 5z"/>
<path d="M1873 649 c-18 -12 -33 -27 -33 -35 0 -17 5 -17 32 -3 32 17 49 -6
19 -27 -16 -12 -20 -19 -12 -27 7 -7 16 -5 31 8 18 16 20 16 26 1 3 -9 -1 -27
-10 -41 -20 -31 -8 -32 30 -3 16 12 30 23 32 24 4 2 -72 123 -78 123 -3 1 -20
-9 -37 -20z"/>
<path d="M830 631 c0 -10 7 -21 15 -25 34 -13 11 -41 -47 -60 -10 -3 -18 -15
-18 -26 0 -24 2 -24 41 -4 38 19 49 11 24 -17 -17 -17 -17 -22 -5 -29 22 -14
22 -14 63 52 30 47 35 63 25 69 -20 13 -24 11 -39 -18 l-14 -28 -3 40 c-3 40
-16 65 -33 65 -5 0 -9 -9 -9 -19z"/>
<path d="M1732 571 c-11 -7 -8 -19 13 -61 14 -28 25 -53 23 -55 -2 -1 -11 -6
-20 -11 -10 -6 -14 -14 -9 -22 5 -9 20 -6 59 13 29 14 52 29 52 33 0 16 -13
21 -30 12 -16 -8 -22 -2 -41 45 -24 58 -26 60 -47 46z"/>
<path d="M984 526 c-18 -14 -18 -15 -1 -21 9 -4 26 -5 37 -2 10 3 27 -1 37 -8
14 -11 16 -18 8 -42 -13 -35 -49 -43 -65 -14 -11 21 -50 30 -50 12 0 -6 11
-22 23 -37 57 -66 159 -2 126 79 -18 44 -77 61 -115 33z"/>
<path d="M1176 478 c-3 -13 -8 -40 -11 -61 -3 -21 -8 -44 -11 -51 -5 -12 24
-32 33 -23 2 2 10 36 17 75 12 61 12 72 -1 76 -21 9 -22 8 -27 -16z"/>
<path d="M1520 480 c0 -13 7 -20 20 -20 13 0 20 7 20 20 0 13 -7 20 -20 20
-13 0 -20 -7 -20 -20z"/>
<path d="M1308 423 c-3 -51 -6 -58 -25 -61 -13 -2 -23 -10 -23 -18 0 -11 15
-14 60 -14 47 0 60 3 60 15 0 9 -9 15 -21 15 -20 0 -21 4 -16 60 5 54 3 60
-13 60 -16 0 -19 -9 -22 -57z"/>
</g>
</svg>
